<svg xmlns="http://www.w3.org/2000/svg" version="1.1" xmlns:xlink="http://www.w3.org/1999/xlink" xmlns:svgjs="http://svgjs.com/svgjs" width="1440" height="560" preserveAspectRatio="none" viewBox="0 0 1440 560"><g mask="url(&quot;#SvgjsMask2028&quot;)" fill="none"><rect width="1440" height="560" x="0" y="0" fill="url(#SvgjsLinearGradient2029)"></rect><path d="M1400 175C1347.67 175 1270.77 240.64 1270.77 280C1270.77 311.8 1338.97 317.33 1400 317.33C1427.59 317.33 1448 304.55 1448 280C1448 233.39 1436.28 175 1400 175" stroke="rgba(0, 0, 0, 0.49)" stroke-width="2"></path><path d="M840 371C809.03 371 768.29 398.67 768.29 420C768.29 439.32 807.15 452.31 840 452.31C858.98 452.31 871.96 437.77 871.96 420C871.96 397.12 860.86 371 840 371" stroke="rgba(0, 0, 0, 0.49)" stroke-width="2"></path><path d="M1260 294C1247.67 294 1240.31 358.66 1240.31 420C1240.31 440.19 1248.37 457.06 1260 457.06C1273.21 457.06 1290 441.94 1290 420C1290 360.41 1272.52 294 1260 294" stroke="rgba(0, 0, 0, 0.49)" stroke-width="2"></path><path d="M140 105.71C92.7 69.32 70 34.05 70 0C70 -18.8 105 0 140 0C210 0 210 0 280 0C350 0 350 0 420 0C443.34 0 446.35 -9.53 466.67 0C516.35 23.31 514.03 31.89 560 65.68C609.25 101.89 633.69 90.05 657.1 140C683.91 197.21 683.63 218.96 660.43 280C635.08 346.71 610.68 338.17 560 395.5C548.8 408.17 547.63 407.12 536.67 420C477.63 489.37 492.11 527.47 420 560C363.78 585.36 347.17 535.77 280 535.77C260.59 535.77 266.28 556.64 246.84 560C196.28 568.75 193.42 560 140 560C70 560 35 595 0 560C-35 525 0 490 0 420C0 408.13 -9.91 400.28 0 396.27C60.09 371.95 70.57 381.92 140 363.33C210.57 344.44 215.23 351.08 280 321.31C305.89 309.41 321.31 305.42 321.31 280C321.31 224.77 307.26 215.07 280 160C272.61 145.07 267.89 146.16 252 140C197.89 119.02 183.7 139.32 140 105.71" stroke="rgba(0, 0, 0, 0.49)" stroke-width="2"></path><path d="M700 54.19C682.95 54.19 666.4 17.74 666.4 0C666.4 -9.35 683.2 0 700 0C717.5 0 735 -9.53 735 0C735 17.57 717.25 54.19 700 54.19" stroke="rgba(0, 0, 0, 0.49)" stroke-width="2"></path><path d="M937.67 140C958.83 119.32 956.34 98.64 980 98.64C1012.5 98.64 1014.55 120.12 1050 140C1084.55 159.37 1091.22 150.98 1120 177.14C1168.22 220.98 1188.1 221.15 1204 280C1220.91 342.58 1172.44 354.05 1185.63 420C1200.44 494.05 1277.43 522.83 1260 560C1244.61 592.83 1190 560 1120 560C1050 560 1050 560 980 560C910 560 910 560 840 560C770 560 770 560 700 560C654.89 560 609.78 582.46 609.78 560C609.78 522.75 642.26 457.95 700 440.59C757.37 423.34 777.1 496.94 840 490.77C882.1 486.64 910 458.93 910 420C910 369.88 883.98 355.85 840 312.67C812.68 285.85 767.41 298.65 767.41 280C767.41 260.04 807.3 262.34 840 235.45C892.43 192.34 888.83 187.72 937.67 140" stroke="rgba(0, 0, 0, 0.49)" stroke-width="2"></path><path d="M1260 95.56C1198.62 82.29 1152.5 27.34 1152.5 0C1152.5 -20.44 1206.25 0 1260 0C1330 0 1330 0 1400 0C1470 0 1505 -35 1540 0C1575 35 1540 70 1540 140C1540 205.34 1558.41 270.67 1540 270.67C1518.41 270.67 1501.5 204.36 1460 140C1431.5 95.79 1441.86 62.83 1400 53.53C1341.86 40.61 1322.37 109.05 1260 95.56" stroke="rgba(0, 0, 0, 0.49)" stroke-width="2"></path><path d="M1373.33 420C1385.12 406.11 1383.27 395.11 1400 395.11C1452.61 395.11 1458.15 402.73 1512 420C1528.15 425.18 1536.88 424.4 1540 440C1550.88 494.4 1572.31 532.31 1540 560C1502.31 592.31 1470 560 1400 560C1330 560 1265.83 590.61 1260 560C1252.5 520.61 1315.12 488.56 1373.33 420" stroke="rgba(0, 0, 0, 0.49)" stroke-width="2"></path><path d="M140 34.29C123.99 34.29 117.3 11.05 117.3 0C117.3 -6.1 128.65 0 140 0C175 0 210 -8.11 210 0C210 9.03 170.34 34.29 140 34.29" stroke="rgba(0, 0, 0, 0.49)" stroke-width="2"></path><path d="M403.2 140C408.54 115.85 399.58 97.38 420 93.33C477.98 81.83 493.75 91.77 560 108.89C584.07 115.11 597.41 117.21 600.65 140C609.58 202.76 600.44 213.51 584.35 280C580.11 297.51 572.68 294.46 560 308C507.17 364.46 505.7 363.14 453.33 420C435.7 439.14 443.46 453.44 420 460C356.8 477.67 346.83 479.74 280 468.46C228.37 459.74 183.08 442.76 183.08 420C183.08 397.87 237.93 408.8 280 378.69C335.73 338.8 348.17 339.13 378.69 280C409.77 219.79 387.89 209.19 403.2 140" stroke="rgba(0, 0, 0, 0.49)" stroke-width="2"></path><path d="M1260 40C1234.66 40 1215 11.45 1215 0C1215 -8.55 1237.5 0 1260 0C1302 0 1344 -9.49 1344 0C1344 10.51 1299.16 40 1260 40" stroke="rgba(0, 0, 0, 0.49)" stroke-width="2"></path><path d="M1531.43 140C1531.43 98.98 1537.85 56 1540 56C1542.14 56 1540 98 1540 140C1540 147 1541.97 154 1540 154C1537.69 154 1531.43 147.98 1531.43 140" stroke="rgba(0, 0, 0, 0.49)" stroke-width="2"></path><path d="M1010 280C1063.7 261.23 1069.93 248.57 1120 248.57C1137.76 248.57 1144.45 260.82 1145.67 280C1149.92 346.53 1141.64 350.86 1130.94 420C1128.8 433.82 1131.24 438.11 1120 445.93C1055.77 490.61 1031.1 532.71 980 525C945.12 519.74 948.04 472.82 948.04 420C948.04 359.07 955.69 352.43 980 297.5C986.67 282.43 993.7 285.7 1010 280" stroke="rgba(0, 0, 0, 0.49)" stroke-width="2"></path><path d="M0 495C47.93 479.02 82.55 489.2 140 513.33C159.92 521.7 154.74 542.07 154.74 560C154.74 565.4 147.37 560 140 560C70 560 47.8 582.2 0 560C-22.2 549.7 -22.07 502.36 0 495" stroke="rgba(0, 0, 0, 0.49)" stroke-width="2"></path><path d="M687.56 560C687.56 554.86 690.25 545.5 700 543.53C766.47 530.11 771.11 524.57 840 529.23C892.96 532.81 943.7 552.15 943.7 560C943.7 567.53 891.85 560 840 560C770 560 770 560 700 560C693.78 560 687.56 563.1 687.56 560" stroke="rgba(0, 0, 0, 0.49)" stroke-width="2"></path><path d="M1369.38 560C1369.38 547.24 1382.3 519.17 1400 519.17C1422.11 519.17 1449 548.45 1449 560C1449 568.87 1424.5 560 1400 560C1384.69 560 1369.38 567.66 1369.38 560" stroke="rgba(0, 0, 0, 0.49)" stroke-width="2"></path></g><defs><mask id="SvgjsMask2028"><rect width="1440" height="560" fill="#ffffff"></rect></mask><linearGradient x1="15.28%" y1="-39.29%" x2="84.72%" y2="139.29%" gradientUnits="userSpaceOnUse" id="SvgjsLinearGradient2029"><stop stop-color="rgba(66, 22, 103, 1)" offset="0"></stop><stop stop-color="rgba(140, 33, 33, 1)" offset="1"></stop></linearGradient></defs></svg>