<svg xmlns="http://www.w3.org/2000/svg" xmlns:xlink="http://www.w3.org/1999/xlink" width="500" zoomAndPan="magnify" viewBox="0 0 375 374.999991" height="500" preserveAspectRatio="xMidYMid meet" version="1.0"><path fill="#ffffff" d="M 83.660156 263.898438 C 81.777344 268.648438 82.203125 270.011719 82.375 270.460938 C 82.832031 271.550781 83.585938 272.363281 84.632812 272.90625 C 87.5625 272.21875 91.433594 272.488281 93.273438 270.6875 C 96.726562 267.394531 100.414062 264.394531 104.339844 261.679688 C 108.261719 258.964844 112.371094 256.570312 116.667969 254.5 C 120.964844 252.429688 125.398438 250.703125 129.964844 249.320312 C 134.53125 247.941406 139.175781 246.925781 143.902344 246.273438 C 176.726562 240.800781 208.355469 246.328125 239.332031 257.128906 C 246.242188 259.539062 252.984375 262.429688 260.539062 265.390625 L 296.832031 188.246094 C 279.070312 175.871094 261.132812 164.933594 245.011719 151.777344 C 221.753906 132.78125 203.597656 109.574219 196.90625 79.367188 C 195.5 71.878906 194.921875 64.332031 195.175781 56.71875 C 195.175781 52.558594 196.578125 48.128906 191.503906 46.503906 C 185.746094 44.65625 184.410156 49.648438 182.609375 53.464844 C 163.988281 93.066406 145.359375 132.664062 126.730469 172.25 C 112.855469 201.730469 98.976562 231.203125 85.085938 260.667969 C 84.550781 261.769531 84.226562 262.460938 83.660156 263.898438 Z M 254.386719 280.171875 C 251.457031 285.886719 246.929688 293.976562 244.894531 297.941406 C 218.8125 289.898438 219.339844 283.652344 227.40625 268.199219 Z M 267.382812 284.648438 L 293.039062 296.78125 C 278.117188 319.949219 263.496094 342.453125 249.058594 365.066406 C 245.820312 370.136719 241.835938 372.78125 236 370.191406 C 230.957031 367.953125 230.148438 362.828125 233.378906 355.941406 C 243.753906 333.835938 254.15625 311.730469 264.589844 289.628906 C 265.355469 287.992188 266.359375 286.472656 267.382812 284.671875 Z M 102.121094 6.820312 C 102.507812 6.148438 102.96875 5.539062 103.507812 4.984375 C 104.050781 4.433594 104.648438 3.957031 105.3125 3.554688 C 105.972656 3.15625 106.671875 2.84375 107.414062 2.621094 C 108.152344 2.398438 108.90625 2.269531 109.679688 2.238281 C 110.429688 2.230469 111.164062 2.316406 111.890625 2.496094 C 112.621094 2.671875 113.3125 2.9375 113.972656 3.289062 C 114.632812 3.640625 115.238281 4.070312 115.792969 4.574219 C 116.347656 5.078125 116.828125 5.640625 117.238281 6.265625 C 122.015625 13.082031 126.722656 19.976562 131.363281 26.957031 C 131.796875 27.554688 132.140625 28.199219 132.394531 28.890625 C 132.652344 29.582031 132.816406 30.296875 132.882812 31.03125 C 132.945312 31.765625 132.914062 32.496094 132.785156 33.222656 C 132.652344 33.949219 132.429688 34.644531 132.109375 35.3125 C 131.878906 35.792969 131.605469 36.25 131.285156 36.679688 C 130.96875 37.105469 130.609375 37.5 130.214844 37.859375 C 129.820312 38.21875 129.394531 38.539062 128.9375 38.816406 C 128.480469 39.09375 128 39.324219 127.5 39.507812 C 126.996094 39.691406 126.484375 39.824219 125.953125 39.910156 C 125.425781 39.992188 124.894531 40.027344 124.363281 40.007812 C 123.828125 39.988281 123.300781 39.921875 122.78125 39.800781 C 122.261719 39.679688 121.757812 39.507812 121.269531 39.289062 C 119.902344 38.585938 118.773438 37.609375 117.886719 36.355469 C 113.160156 29.59375 108.136719 22.332031 103.414062 15.070312 C 102.578125 13.570312 102.113281 11.960938 102.019531 10.246094 C 101.972656 9.699219 101.871094 9.152344 101.773438 8.605469 L 101.574219 7.609375 Z M 28.464844 105.839844 C 28.546875 105.070312 28.726562 104.324219 29 103.601562 C 29.269531 102.875 29.628906 102.195312 30.074219 101.5625 C 30.515625 100.925781 31.03125 100.359375 31.617188 99.851562 C 32.203125 99.347656 32.84375 98.921875 33.535156 98.578125 C 34.207031 98.261719 34.90625 98.035156 35.632812 97.894531 C 36.359375 97.757812 37.09375 97.710938 37.835938 97.757812 C 38.574219 97.808594 39.296875 97.945312 40 98.179688 C 40.703125 98.410156 41.367188 98.726562 41.992188 99.125 C 49.203125 103.355469 56.363281 107.730469 63.476562 112.15625 C 64.109375 112.53125 64.683594 112.984375 65.199219 113.507812 C 65.714844 114.035156 66.15625 114.621094 66.515625 115.261719 C 66.878906 115.902344 67.152344 116.578125 67.335938 117.292969 C 67.519531 118.007812 67.609375 118.730469 67.605469 119.46875 C 67.546875 120.886719 67.164062 122.214844 66.460938 123.445312 C 66.105469 124.078125 65.667969 124.652344 65.15625 125.164062 C 64.644531 125.679688 64.074219 126.117188 63.445312 126.476562 C 62.8125 126.835938 62.144531 127.101562 61.441406 127.28125 C 60.738281 127.460938 60.023438 127.539062 59.296875 127.523438 C 57.765625 127.503906 56.355469 127.070312 55.070312 126.230469 C 47.910156 122.054688 40.351562 117.527344 33.039062 112.851562 C 31.667969 111.824219 30.589844 110.546875 29.804688 109.023438 C 29.507812 108.527344 29.210938 108.078125 28.960938 107.632812 L 28.3125 106.835938 Z M 0.8125 238.183594 C 1.054688 237.484375 1.378906 236.824219 1.785156 236.207031 C 2.191406 235.585938 2.667969 235.027344 3.21875 234.527344 C 3.765625 234.027344 4.363281 233.605469 5.019531 233.253906 C 5.671875 232.90625 6.359375 232.644531 7.078125 232.464844 C 15.085938 230.175781 23.242188 228.089844 31.347656 226 C 32.058594 225.804688 32.785156 225.703125 33.523438 225.699219 C 34.261719 225.691406 34.988281 225.78125 35.703125 225.964844 C 36.417969 226.148438 37.097656 226.417969 37.742188 226.777344 C 38.386719 227.140625 38.972656 227.574219 39.503906 228.089844 C 40.476562 229.121094 41.171875 230.316406 41.59375 231.667969 C 41.800781 232.367188 41.910156 233.078125 41.925781 233.804688 C 41.941406 234.535156 41.859375 235.25 41.679688 235.953125 C 41.5 236.660156 41.230469 237.328125 40.867188 237.960938 C 40.507812 238.589844 40.070312 239.164062 39.554688 239.675781 C 38.472656 240.738281 37.195312 241.453125 35.722656 241.816406 C 27.765625 244.054688 19.210938 246.390625 10.808594 248.429688 C 9.113281 248.6875 7.4375 248.589844 5.785156 248.132812 C 5.238281 247.980469 4.691406 247.882812 4.191406 247.785156 L 3.148438 247.683594 L 2.550781 246.839844 C 2.050781 246.25 1.632812 245.609375 1.296875 244.914062 C 0.960938 244.21875 0.71875 243.492188 0.566406 242.734375 C 0.414062 241.980469 0.359375 241.214844 0.398438 240.445312 C 0.441406 239.675781 0.578125 238.921875 0.8125 238.183594 Z M 310.527344 192.105469 C 324.25 198.816406 337.734375 204.320312 350.097656 211.695312 C 351.171875 212.371094 352.210938 213.089844 353.21875 213.855469 C 354.226562 214.621094 355.199219 215.429688 356.136719 216.28125 C 357.074219 217.132812 357.96875 218.027344 358.828125 218.957031 C 359.683594 219.890625 360.496094 220.859375 361.269531 221.863281 C 362.039062 222.867188 362.765625 223.902344 363.445312 224.972656 C 364.125 226.039062 364.753906 227.136719 365.335938 228.261719 C 365.917969 229.386719 366.449219 230.535156 366.929688 231.707031 C 367.410156 232.875 367.835938 234.066406 368.210938 235.277344 C 368.585938 236.488281 368.90625 237.710938 369.167969 238.949219 C 369.433594 240.1875 369.644531 241.433594 369.800781 242.691406 C 369.953125 243.949219 370.054688 245.207031 370.097656 246.472656 C 370.140625 247.738281 370.125 249.003906 370.054688 250.269531 C 369.984375 251.53125 369.859375 252.792969 369.679688 254.042969 C 369.496094 255.296875 369.261719 256.539062 368.96875 257.773438 C 368.675781 259.003906 368.332031 260.222656 367.933594 261.421875 C 367.53125 262.625 367.078125 263.804688 366.574219 264.96875 C 366.121094 266.152344 365.617188 267.3125 365.058594 268.449219 C 364.5 269.589844 363.890625 270.699219 363.230469 271.78125 C 362.574219 272.863281 361.867188 273.914062 361.109375 274.933594 C 360.355469 275.953125 359.554688 276.933594 358.710938 277.878906 C 357.867188 278.824219 356.980469 279.730469 356.054688 280.597656 C 355.128906 281.460938 354.164062 282.28125 353.164062 283.058594 C 352.164062 283.835938 351.128906 284.566406 350.058594 285.25 C 348.992188 285.933594 347.894531 286.566406 346.769531 287.152344 C 345.644531 287.734375 344.496094 288.265625 343.320312 288.746094 C 342.148438 289.226562 340.957031 289.648438 339.742188 290.019531 C 338.53125 290.390625 337.304688 290.707031 336.0625 290.964844 C 334.820312 291.222656 333.570312 291.425781 332.3125 291.570312 C 331.054688 291.714844 329.789062 291.804688 328.523438 291.835938 C 327.253906 291.863281 325.988281 291.839844 324.722656 291.753906 C 323.460938 291.667969 322.199219 291.527344 320.949219 291.328125 C 319.695312 291.128906 318.457031 290.871094 317.226562 290.558594 C 302.066406 285.292969 287.257812 279.171875 272.804688 272.199219 Z M 103.855469 144.8125 C 108.382812 135.859375 116.289062 132.964844 129.160156 136.476562 L 113.082031 170.574219 C 101.648438 162.3125 99.070312 154.261719 103.855469 144.8125 Z M 103.855469 144.8125 " fill-opacity="1" fill-rule="nonzero"/></svg>