<svg xmlns="http://www.w3.org/2000/svg" version="1.1" xmlns:xlink="http://www.w3.org/1999/xlink" xmlns:svgjs="http://svgjs.com/svgjs" width="1440" height="560" preserveAspectRatio="none" viewBox="0 0 1440 560"><g mask="url(&quot;#SvgjsMask1046&quot;)" fill="none"><rect width="1440" height="560" x="0" y="0" fill="rgba(148, 172, 197, 1)"></rect><path d="M0,641.804C120.3,665.218,258.228,622.939,344.214,535.608C427.473,451.046,385.881,306.683,435.912,199.074C486.484,90.303,648.395,27.878,635.734,-91.405C623.191,-209.574,476.661,-260.231,379.847,-329.139C303.454,-383.512,218.461,-413.363,132.094,-449.872C33.143,-491.701,-59.929,-585.089,-164.168,-559.106C-268.178,-533.18,-296.059,-397.723,-373.684,-323.799C-462.769,-238.962,-615.157,-210.99,-652.721,-93.847C-690.284,23.294,-633.53,157.285,-559.441,255.488C-491.156,345.998,-360.975,352.091,-267.679,416.516C-169.73,484.154,-116.841,619.064,0,641.804" fill="#5c81a7"></path><path d="M1440 1143.98C1567.386 1171.172 1708.5810000000001 1218.295 1822.682 1155.4650000000001 1937.412 1092.289 1981.184 949.927 2019.725 824.752 2054.779 710.904 2046.94 593.06 2032.243 474.848 2017.279 354.488 2005.513 229.957 1933.63 132.267 1858.835 30.620000000000005 1752.63-66.57799999999997 1626.794-76.16200000000003 1503.403-85.55999999999995 1419.748 51.906000000000006 1300.242 84.02699999999999 1176.221 117.36200000000002 1023.204 31.375999999999976 923.871 112.77199999999999 825.993 192.976 849.247 347.296 826.949 471.85699999999997 803.787 601.247 723.3 743.679 790.734 856.51 858.991 970.717 1027.989 957.932 1149.647 1011.798 1248.894 1055.741 1333.851 1121.321 1440 1143.98" fill="#ccd7e3"></path></g><defs><mask id="SvgjsMask1046"><rect width="1440" height="560" fill="#ffffff"></rect></mask></defs></svg>